<svg width="123" height="123" viewBox="0 0 123 123" fill="none" xmlns="http://www.w3.org/2000/svg">
<rect x="11.0001" y="11" width="100" height="100" rx="20" fill="#FFE8C8"/>
<rect x="25.8819" width="100" height="100" rx="20" transform="rotate(15 25.8819 0)" fill="#FFE8C8" fill-opacity="0.5"/>
<g clip-path="url(#clip0_319_41539)">
<path d="M59.0103 54.8914H56.2336V57.668H59.0103C59.777 57.668 60.3986 57.0464 60.3986 56.2797C60.3986 55.513 59.777 54.8914 59.0103 54.8914Z" fill="#FFB35C"/>
<path d="M59.0103 64.6097H56.2336V67.3863H59.0103C59.777 67.3863 60.3986 66.7647 60.3986 65.998C60.3986 65.2313 59.777 64.6097 59.0103 64.6097Z" fill="#FFB35C"/>
<path d="M57.6218 65.998C57.6218 65.2313 57.0002 64.6097 56.2335 64.6097H55.4468V57.668H56.2335C57.0002 57.668 57.6218 57.0464 57.6218 56.2797C57.6218 55.5129 57.0002 54.8913 56.2335 54.8913H55.4468V51.328C55.4468 50.5612 54.8252 49.9396 54.0584 49.9396C53.2917 49.9396 52.6701 50.5612 52.6701 51.328V54.8913H45.7284V51.328C45.7284 50.5612 45.1068 49.9396 44.3401 49.9396C43.5734 49.9396 42.9518 50.5612 42.9518 51.328V54.8913H39.3884C38.6217 54.8913 38.0001 55.5129 38.0001 56.2797C38.0001 57.0464 38.6217 57.668 39.3884 57.668H42.9518V64.6097H39.3884C38.6217 64.6097 38.0001 65.2313 38.0001 65.998C38.0001 66.7647 38.6217 67.3863 39.3884 67.3863H42.9518V70.9497C42.9518 71.7164 43.5734 72.338 44.3401 72.338C45.1068 72.338 45.7284 71.7164 45.7284 70.9497V67.3863H52.6701V70.9497C52.6701 71.7164 53.2917 72.338 54.0584 72.338C54.8252 72.338 55.4468 71.7164 55.4468 70.9497V67.3863H56.2335C57.0002 67.3863 57.6218 66.7647 57.6218 65.998ZM52.6701 64.6097H45.7284V57.668H52.6701V64.6097Z" fill="#FFAC37"/>
<path d="M79.8351 75.67V42.165C79.8351 39.8647 77.9704 38 75.6701 38H63.1751C60.8749 38 59.0102 39.8647 59.0102 42.165C59.0102 44.4653 60.8749 46.33 63.1751 46.33V75.67C60.8749 75.67 59.0102 77.5347 59.0102 79.835C59.0102 82.1353 60.8749 84 63.1751 84H79.8351C82.1354 84 84.0001 82.1353 84.0001 79.835C84.0001 77.5347 82.1354 75.67 79.8351 75.67Z" fill="#FFAC37"/>
<path d="M74.2816 78.5855V42.3038C74.2816 41.5371 73.66 40.9155 72.8933 40.9155H63.175C62.4082 40.9155 61.7866 41.5371 61.7866 42.3038C61.7866 43.0705 62.4082 43.6921 63.175 43.6921H65.9516V78.5855H63.175C62.4082 78.5855 61.7866 79.2071 61.7866 79.9738C61.7866 80.7405 62.4082 81.3621 63.175 81.3621H77.0583C75.5248 81.3621 74.2816 80.119 74.2816 78.5855Z" fill="#FFBE40"/>
</g>
<defs>
<clipPath id="clip0_319_41539">
<rect width="46" height="46" fill="white" transform="translate(38.0001 38)"/>
</clipPath>
</defs>
</svg>
