<svg width="123" height="123" viewBox="0 0 123 123" fill="none" xmlns="http://www.w3.org/2000/svg">
<rect x="25.8819" width="100" height="100" rx="20" transform="rotate(15 25.8819 0)" fill="#FFE8C8" fill-opacity="0.5"/>
<rect x="11.0001" y="11" width="100" height="100" rx="20" fill="#FFE8C8"/>
<g clip-path="url(#clip0_319_41533)">
<path d="M51.5125 59.498C43.8608 58.7794 38.0001 52.4347 38.0001 44.7383V42.043C38.0001 39.8136 39.8136 38 42.043 38C44.2724 38 46.086 39.8136 46.086 42.043C46.086 42.7865 46.6901 43.3906 47.4337 43.3906H50.2188C50.9637 43.3906 51.5665 43.9934 51.5665 44.7383C51.5665 45.4832 50.9637 46.0859 50.2188 46.0859H47.4337C45.2043 46.0859 43.3907 44.2724 43.3907 42.043C43.3907 41.2994 42.7866 40.6953 42.043 40.6953C41.2995 40.6953 40.6954 41.2994 40.6954 42.043V44.7383C40.6954 51.0357 45.506 56.2262 51.7652 56.8132C52.5061 56.8829 53.0497 57.541 52.9812 58.282C52.9115 59.0206 52.2575 59.5657 51.5125 59.498Z" fill="#FB9333"/>
<path d="M69.1085 58.282C69.0401 57.541 69.5836 56.883 70.3246 56.8132C76.5838 56.2262 81.3046 51.0357 81.3046 44.7383V42.043C81.3046 41.2994 80.7005 40.6953 79.9569 40.6953C79.2134 40.6953 78.6093 41.2994 78.6093 42.043C78.6093 44.2724 76.7957 46.0859 74.5663 46.0859H71.871C71.1261 46.0859 70.5233 45.4832 70.5233 44.7383C70.5233 43.9934 71.1261 43.3906 71.871 43.3906H74.5663C75.3098 43.3906 75.9139 42.7865 75.9139 42.043C75.9139 39.8136 77.7275 38 79.9569 38C82.1863 38 83.9999 39.8136 83.9999 42.043V44.7383C83.9999 52.4347 78.2289 58.7794 70.5773 59.498C69.8324 59.5657 69.1783 59.0206 69.1085 58.282Z" fill="#FB9333"/>
<path d="M71.8712 38H61.0001H50.2188C49.4739 38 48.8712 38.6028 48.8712 39.3477V52.8242C48.8712 57.9767 52.1469 62.5223 56.9571 64.2201V74.5664H61.0001H65.043V64.2201C69.8533 62.5224 73.2188 57.9767 73.2188 52.8242V39.3477C73.2188 38.6028 72.616 38 71.8712 38Z" fill="#FFDF40"/>
<path d="M65.043 64.2201C69.8533 62.5224 73.2188 57.9767 73.2188 52.8242V39.3477C73.2188 38.6028 72.616 38 71.8712 38H61.0001V74.5664H65.043V64.2201Z" fill="#FFBE40"/>
<path d="M67.8831 48.3917C67.7239 47.9034 67.3027 47.548 66.7948 47.4744L63.6257 47.0137L62.2083 44.1421C61.9819 43.6814 61.4911 43.4512 61.0002 43.4512C60.5093 43.4512 60.0184 43.6814 59.7921 44.1421L58.3747 47.0137L55.2056 47.4744C54.6977 47.548 54.2765 47.9034 54.1173 48.3917C53.9593 48.8786 54.0909 49.4143 54.4581 49.7722L56.752 52.0083L56.2111 55.1642C56.1242 55.6696 56.3322 56.1802 56.7467 56.4816C57.1613 56.7843 57.7167 56.8238 58.1654 56.5843L61.0001 55.0957L63.8349 56.5842C64.2823 56.8214 64.836 56.7867 65.2537 56.4815C65.6682 56.1801 65.8762 55.6695 65.7893 55.1641L65.2484 52.0082L67.5423 49.7721C67.9094 49.4143 68.0411 48.8786 67.8831 48.3917Z" fill="#FFBE40"/>
<path d="M65.2537 56.4816C65.6682 56.1802 65.8762 55.6696 65.7893 55.1642L65.2484 52.0083L67.5423 49.7722C67.9095 49.4143 68.0411 48.8786 67.8831 48.3917C67.7239 47.9034 67.3027 47.548 66.7948 47.4744L63.6257 47.0137L62.2083 44.1421C61.9819 43.6814 61.4911 43.4512 61.0002 43.4512V55.0957L63.835 56.5842C64.2822 56.8215 64.836 56.7868 65.2537 56.4816Z" fill="#FB9333"/>
<path d="M71.7813 78.6094H70.4337V74.5664C70.4337 73.8215 69.8309 73.2188 69.086 73.2188H61.0001H52.9141C52.1692 73.2188 51.5665 73.8215 51.5665 74.5664V78.6094H50.2188C49.4739 78.6094 48.8712 79.2121 48.8712 79.957V82.6523C48.8712 83.3972 49.4739 84 50.2188 84H61.0001H71.7813C72.5262 84 73.129 83.3972 73.129 82.6523V79.957C73.129 79.2121 72.5262 78.6094 71.7813 78.6094Z" fill="#FB9333"/>
<path d="M73.129 82.6523V79.957C73.129 79.2121 72.5262 78.6094 71.7813 78.6094H70.4337V74.5664C70.4337 73.8215 69.8309 73.2188 69.086 73.2188H61.0001V84H71.7813C72.5262 84 73.129 83.3972 73.129 82.6523Z" fill="#FB9333"/>
<path d="M63.6954 77.2617H61.0001H58.3047C57.5599 77.2617 56.9571 77.8645 56.9571 78.6094C56.9571 79.3543 57.5599 79.957 58.3047 79.957H61.0001H63.6954C64.4403 79.957 65.043 79.3543 65.043 78.6094C65.043 77.8645 64.4403 77.2617 63.6954 77.2617Z" fill="white"/>
<path d="M65.043 78.6094C65.043 77.8645 64.4403 77.2617 63.6954 77.2617H61.0001V79.957H63.6954C64.4403 79.957 65.043 79.3543 65.043 78.6094Z" fill="white"/>
</g>
<defs>
<clipPath id="clip0_319_41533">
<rect width="46" height="46" fill="white" transform="translate(38.0001 38)"/>
</clipPath>
</defs>
</svg>
