<svg width="128" height="18" viewBox="0 0 128 18" fill="none" xmlns="http://www.w3.org/2000/svg">
<path d="M7.65234 11.9414V0.234375H11.7539V11.9414C11.7539 13.082 11.4922 14.0703 10.9688 14.9062C10.4531 15.7422 9.75 16.3906 8.85938 16.8516C7.97656 17.3047 6.98438 17.5312 5.88281 17.5312C4.74219 17.5312 3.72656 17.3398 2.83594 16.957C1.95312 16.5742 1.25781 15.9844 0.75 15.1875C0.25 14.3906 0 13.375 0 12.1406H4.125C4.125 12.7188 4.19141 13.1719 4.32422 13.5C4.45703 13.8203 4.65234 14.0469 4.91016 14.1797C5.17578 14.3047 5.5 14.3672 5.88281 14.3672C6.25781 14.3672 6.57422 14.2734 6.83203 14.0859C7.09766 13.8906 7.30078 13.6133 7.44141 13.2539C7.58203 12.8867 7.65234 12.4492 7.65234 11.9414ZM26.1094 14.1328V17.2969H17.0156V14.1328H26.1094ZM18.4805 0.234375V17.2969H14.3672V0.234375H18.4805ZM24.9375 7.00781V10.0664H17.0156V7.00781H24.9375ZM26.1445 0.234375V3.41016H17.0156V0.234375H26.1445ZM40.5703 14.1328V17.2969H28.2188V14.1328H40.5703ZM40.4883 2.34375L30.2578 17.2969H27.2812V15.1289L37.6289 0.234375H40.4883V2.34375ZM39.1641 0.234375V3.41016H27.2227V0.234375H39.1641Z" fill="#FB9333"/>
<path d="M63.5039 12.832C63.5039 12.5273 63.457 12.2539 63.3633 12.0117C63.2773 11.7617 63.1133 11.5352 62.8711 11.332C62.6289 11.1211 62.2891 10.9141 61.8516 10.7109C61.4141 10.5078 60.8477 10.2969 60.1523 10.0781C59.3789 9.82812 58.6445 9.54688 57.9492 9.23438C57.2617 8.92188 56.6523 8.55859 56.1211 8.14453C55.5977 7.72266 55.1836 7.23438 54.8789 6.67969C54.582 6.125 54.4336 5.48047 54.4336 4.74609C54.4336 4.03516 54.5898 3.39062 54.9023 2.8125C55.2148 2.22656 55.6523 1.72656 56.2148 1.3125C56.7773 0.890625 57.4414 0.566406 58.207 0.339844C58.9805 0.113281 59.8281 0 60.75 0C62.0078 0 63.1055 0.226562 64.043 0.679688C64.9805 1.13281 65.707 1.75391 66.2227 2.54297C66.7461 3.33203 67.0078 4.23438 67.0078 5.25H63.5156C63.5156 4.75 63.4102 4.3125 63.1992 3.9375C62.9961 3.55469 62.6836 3.25391 62.2617 3.03516C61.8477 2.81641 61.3242 2.70703 60.6914 2.70703C60.082 2.70703 59.5742 2.80078 59.168 2.98828C58.7617 3.16797 58.457 3.41406 58.2539 3.72656C58.0508 4.03125 57.9492 4.375 57.9492 4.75781C57.9492 5.04688 58.0195 5.30859 58.1602 5.54297C58.3086 5.77734 58.5273 5.99609 58.8164 6.19922C59.1055 6.40234 59.4609 6.59375 59.8828 6.77344C60.3047 6.95312 60.793 7.12891 61.3477 7.30078C62.2773 7.58203 63.0938 7.89844 63.7969 8.25C64.5078 8.60156 65.1016 8.99609 65.5781 9.43359C66.0547 9.87109 66.4141 10.3672 66.6562 10.9219C66.8984 11.4766 67.0195 12.1055 67.0195 12.8086C67.0195 13.5508 66.875 14.2148 66.5859 14.8008C66.2969 15.3867 65.8789 15.8828 65.332 16.2891C64.7852 16.6953 64.1328 17.0039 63.375 17.2148C62.6172 17.4258 61.7695 17.5312 60.832 17.5312C59.9883 17.5312 59.1562 17.4219 58.3359 17.2031C57.5156 16.9766 56.7695 16.6367 56.0977 16.1836C55.4336 15.7305 54.9023 15.1523 54.5039 14.4492C54.1055 13.7461 53.9062 12.9141 53.9062 11.9531H57.4336C57.4336 12.4844 57.5156 12.9336 57.6797 13.3008C57.8438 13.668 58.0742 13.9648 58.3711 14.1914C58.6758 14.418 59.0352 14.582 59.4492 14.6836C59.8711 14.7852 60.332 14.8359 60.832 14.8359C61.4414 14.8359 61.9414 14.75 62.332 14.5781C62.7305 14.4062 63.0234 14.168 63.2109 13.8633C63.4062 13.5586 63.5039 13.2148 63.5039 12.832ZM76.3477 3.15234L71.707 17.2969H67.9688L74.3086 0.234375H76.6875L76.3477 3.15234ZM80.2031 17.2969L75.5508 3.15234L75.1758 0.234375H77.5781L83.9531 17.2969H80.2031ZM79.9922 10.9453V13.6992H70.9805V10.9453H79.9922ZM96.5039 14.5547V17.2969H87.9141V14.5547H96.5039ZM89.0508 0.234375V17.2969H85.5352V0.234375H89.0508ZM105.691 3.15234L101.051 17.2969H97.3125L103.652 0.234375H106.031L105.691 3.15234ZM109.547 17.2969L104.895 3.15234L104.52 0.234375H106.922L113.297 17.2969H109.547ZM109.336 10.9453V13.6992H100.324V10.9453H109.336ZM120.117 17.2969H116.402L116.426 14.5547H120.117C121.039 14.5547 121.816 14.3477 122.449 13.9336C123.082 13.5117 123.559 12.8984 123.879 12.0938C124.207 11.2891 124.371 10.3164 124.371 9.17578V8.34375C124.371 7.46875 124.277 6.69922 124.09 6.03516C123.91 5.37109 123.641 4.8125 123.281 4.35938C122.922 3.90625 122.48 3.56641 121.957 3.33984C121.434 3.10547 120.832 2.98828 120.152 2.98828H116.332V0.234375H120.152C121.293 0.234375 122.336 0.429688 123.281 0.820312C124.234 1.20313 125.059 1.75391 125.754 2.47266C126.449 3.19141 126.984 4.05078 127.359 5.05078C127.742 6.04297 127.934 7.14844 127.934 8.36719V9.17578C127.934 10.3867 127.742 11.4922 127.359 12.4922C126.984 13.4922 126.449 14.3516 125.754 15.0703C125.066 15.7812 124.242 16.332 123.281 16.7227C122.328 17.1055 121.273 17.2969 120.117 17.2969ZM118.395 0.234375V17.2969H114.879V0.234375H118.395Z" fill="#585858"/>
</svg>
